<?xml version="1.0" encoding="UTF-8" standalone="no"?>
<!DOCTYPE svg PUBLIC "-//W3C//DTD SVG 1.1//EN"
 "http://www.w3.org/Graphics/SVG/1.1/DTD/svg11.dtd">
<!-- Generated by graphviz version 2.40.1 (20161225.0304)
 -->
<!-- Title: %3 Pages: 1 -->
<svg width="242pt" height="260pt"
 viewBox="0.00 0.00 242.29 260.00" xmlns="http://www.w3.org/2000/svg" xmlns:xlink="http://www.w3.org/1999/xlink">
<g id="graph0" class="graph" transform="scale(1 1) rotate(0) translate(4 256)">
<title>%3</title>
<polygon fill="#ffffff" stroke="transparent" points="-4,4 -4,-256 238.2941,-256 238.2941,4 -4,4"/>
<!-- {1, 2, 3} -->
<g id="node1" class="node">
<title>{1, 2, 3}</title>
<ellipse fill="none" stroke="#000000" cx="117.1471" cy="-234" rx="42.4939" ry="18"/>
<text text-anchor="middle" x="117.1471" y="-230.3" font-family="Times,serif" font-size="14.00" fill="#000000">{1, 2, 3}</text>
</g>
<!-- {1, 2} -->
<g id="node2" class="node">
<title>{1, 2}</title>
<ellipse fill="none" stroke="#000000" cx="33.1471" cy="-162" rx="33.2948" ry="18"/>
<text text-anchor="middle" x="33.1471" y="-158.3" font-family="Times,serif" font-size="14.00" fill="#000000">{1, 2}</text>
</g>
<!-- {1, 2, 3}&#45;&#45;{1, 2} -->
<g id="edge1" class="edge">
<title>{1, 2, 3}&#45;&#45;{1, 2}</title>
<path fill="none" stroke="#000000" d="M98.0862,-217.6621C83.9518,-205.5469 64.8176,-189.1462 50.9838,-177.2886"/>
</g>
<!-- {1, 3} -->
<g id="node5" class="node">
<title>{1, 3}</title>
<ellipse fill="none" stroke="#000000" cx="117.1471" cy="-162" rx="33.2948" ry="18"/>
<text text-anchor="middle" x="117.1471" y="-158.3" font-family="Times,serif" font-size="14.00" fill="#000000">{1, 3}</text>
</g>
<!-- {1, 2, 3}&#45;&#45;{1, 3} -->
<g id="edge4" class="edge">
<title>{1, 2, 3}&#45;&#45;{1, 3}</title>
<path fill="none" stroke="#000000" d="M117.1471,-215.8314C117.1471,-205 117.1471,-191.2876 117.1471,-180.4133"/>
</g>
<!-- {2, 3} -->
<g id="node7" class="node">
<title>{2, 3}</title>
<ellipse fill="none" stroke="#000000" cx="201.1471" cy="-162" rx="33.2948" ry="18"/>
<text text-anchor="middle" x="201.1471" y="-158.3" font-family="Times,serif" font-size="14.00" fill="#000000">{2, 3}</text>
</g>
<!-- {1, 2, 3}&#45;&#45;{2, 3} -->
<g id="edge8" class="edge">
<title>{1, 2, 3}&#45;&#45;{2, 3}</title>
<path fill="none" stroke="#000000" d="M136.208,-217.6621C150.3423,-205.5469 169.4765,-189.1462 183.3103,-177.2886"/>
</g>
<!-- {1} -->
<g id="node3" class="node">
<title>{1}</title>
<ellipse fill="none" stroke="#000000" cx="45.1471" cy="-90" rx="27" ry="18"/>
<text text-anchor="middle" x="45.1471" y="-86.3" font-family="Times,serif" font-size="14.00" fill="#000000">{1}</text>
</g>
<!-- {1, 2}&#45;&#45;{1} -->
<g id="edge2" class="edge">
<title>{1, 2}&#45;&#45;{1}</title>
<path fill="none" stroke="#000000" d="M36.1752,-143.8314C38.0082,-132.8334 40.3362,-118.865 42.1615,-107.9134"/>
</g>
<!-- {2} -->
<g id="node6" class="node">
<title>{2}</title>
<ellipse fill="none" stroke="#000000" cx="117.1471" cy="-90" rx="27" ry="18"/>
<text text-anchor="middle" x="117.1471" y="-86.3" font-family="Times,serif" font-size="14.00" fill="#000000">{2}</text>
</g>
<!-- {1, 2}&#45;&#45;{2} -->
<g id="edge6" class="edge">
<title>{1, 2}&#45;&#45;{2}</title>
<path fill="none" stroke="#000000" d="M50.9613,-146.7307C65.6017,-134.1818 86.1897,-116.5349 100.5012,-104.2679"/>
</g>
<!-- Ø -->
<g id="node4" class="node">
<title>Ø</title>
<ellipse fill="none" stroke="#000000" cx="117.1471" cy="-18" rx="27" ry="18"/>
<text text-anchor="middle" x="117.1471" y="-14.3" font-family="Times,serif" font-size="14.00" fill="#000000">Ø</text>
</g>
<!-- {1}&#45;&#45;Ø -->
<g id="edge3" class="edge">
<title>{1}&#45;&#45;Ø</title>
<path fill="none" stroke="#000000" d="M60.4164,-74.7307C72.635,-62.512 89.6869,-45.4602 101.8997,-33.2473"/>
</g>
<!-- {1, 3}&#45;&#45;{1} -->
<g id="edge5" class="edge">
<title>{1, 3}&#45;&#45;{1}</title>
<path fill="none" stroke="#000000" d="M101.1679,-146.0209C89.0706,-133.9235 72.5506,-117.4036 60.5873,-105.4403"/>
</g>
<!-- {3} -->
<g id="node8" class="node">
<title>{3}</title>
<ellipse fill="none" stroke="#000000" cx="189.1471" cy="-90" rx="27" ry="18"/>
<text text-anchor="middle" x="189.1471" y="-86.3" font-family="Times,serif" font-size="14.00" fill="#000000">{3}</text>
</g>
<!-- {1, 3}&#45;&#45;{3} -->
<g id="edge10" class="edge">
<title>{1, 3}&#45;&#45;{3}</title>
<path fill="none" stroke="#000000" d="M133.1262,-146.0209C145.2235,-133.9235 161.7435,-117.4036 173.7068,-105.4403"/>
</g>
<!-- {2}&#45;&#45;Ø -->
<g id="edge7" class="edge">
<title>{2}&#45;&#45;Ø</title>
<path fill="none" stroke="#000000" d="M117.1471,-71.8314C117.1471,-61 117.1471,-47.2876 117.1471,-36.4133"/>
</g>
<!-- {2, 3}&#45;&#45;{2} -->
<g id="edge9" class="edge">
<title>{2, 3}&#45;&#45;{2}</title>
<path fill="none" stroke="#000000" d="M183.3328,-146.7307C168.6925,-134.1818 148.1045,-116.5349 133.7929,-104.2679"/>
</g>
<!-- {2, 3}&#45;&#45;{3} -->
<g id="edge12" class="edge">
<title>{2, 3}&#45;&#45;{3}</title>
<path fill="none" stroke="#000000" d="M198.119,-143.8314C196.286,-132.8334 193.9579,-118.865 192.1326,-107.9134"/>
</g>
<!-- {3}&#45;&#45;Ø -->
<g id="edge11" class="edge">
<title>{3}&#45;&#45;Ø</title>
<path fill="none" stroke="#000000" d="M173.8777,-74.7307C161.6591,-62.512 144.6072,-45.4602 132.3944,-33.2473"/>
</g>
</g>
</svg>
